<?xml version="1.0" encoding="UTF-8" standalone="no"?>
<!-- Created with Inkscape (http://www.inkscape.org/) -->

<svg
   width="512mm"
   height="512mm"
   viewBox="0 0 512 512"
   version="1.1"
   id="svg1"
   inkscape:version="1.3.2 (091e20e, 2023-11-25, custom)"
   sodipodi:docname="c4b.svg"
   xmlns:inkscape="http://www.inkscape.org/namespaces/inkscape"
   xmlns:sodipodi="http://sodipodi.sourceforge.net/DTD/sodipodi-0.dtd"
   xmlns="http://www.w3.org/2000/svg"
   xmlns:svg="http://www.w3.org/2000/svg">
  <sodipodi:namedview
     id="namedview1"
     pagecolor="#ffffff"
     bordercolor="#000000"
     borderopacity="0.25"
     inkscape:showpageshadow="2"
     inkscape:pageopacity="0.0"
     inkscape:pagecheckerboard="0"
     inkscape:deskcolor="#d1d1d1"
     inkscape:document-units="mm"
     inkscape:zoom="0.43253174"
     inkscape:cx="783.75751"
     inkscape:cy="882.0162"
     inkscape:window-width="1920"
     inkscape:window-height="1051"
     inkscape:window-x="-9"
     inkscape:window-y="-9"
     inkscape:window-maximized="1"
     inkscape:current-layer="layer1" />
  <defs
     id="defs1" />
  <g
     inkscape:label="Layer 1"
     inkscape:groupmode="layer"
     id="layer1"
     transform="translate(0.52915955)">
    <circle
       style="display:inline;fill:#000000;stroke-width:6.73515"
       id="path2"
       cx="255.47084"
       cy="256"
       r="256" />
    <path
       style="font-size:295.038px;font-family:'UD Digi Kyokasho NK-B';-inkscape-font-specification:'UD Digi Kyokasho NK-B';fill:#f4eaea;stroke-width:0.347104"
       d="m 123.37277,86.120851 q 41.48972,0 66.9886,23.049839 14.11803,12.67742 14.11803,23.48203 0,6.91496 -5.18621,12.38929 -6.33871,6.62683 -14.9824,6.62683 -7.34714,0 -11.66898,-4.75403 -0.43219,-0.43218 -3.60154,-4.4659 -16.71114,-22.04142 -44.9472,-22.04142 -22.32953,0 -38.464421,15.12646 -23.049843,21.46517 -23.049843,63.38707 0,30.25292 13.685844,51.14184 17.143321,26.07514 48.26061,26.07514 30.54104,0 51.86215,-27.08357 4.89809,-6.19464 13.25366,-6.19464 8.35557,0 14.40615,5.6184 6.33871,5.76246 6.33871,14.11802 0,8.93182 -8.35557,18.15176 -27.94794,30.82916 -77.36104,30.82916 -49.845285,0 -79.377897,-34.4307 -25.787012,-29.9648 -25.787012,-78.08135 0,-52.15027 30.541042,-83.8438 Q 77.993388,86.120851 123.37277,86.120851 Z M 336.29569,262.01997 h -82.97943 q -10.22837,0 -15.84677,-6.05059 -4.89809,-5.47433 -4.89809,-13.68584 0,-7.77932 5.47433,-18.58394 L 304.16997,93.61205 q 4.60997,-9.075876 14.69428,-9.075876 6.48277,0 11.9571,3.601538 7.63526,5.042154 7.63526,13.397718 0,4.75403 -2.73716,10.08431 l -60.79397,116.83389 h 61.37021 v -81.971 q 0,-6.33871 4.32185,-10.37243 5.18621,-4.75403 13.54178,-4.75403 11.95711,0 16.13489,8.49963 1.44062,2.88123 1.44062,6.62683 v 81.971 h 28.95636 q 14.11803,0 14.11803,16.71114 0,11.66898 -7.77932,15.41458 -2.73717,1.44062 -6.33871,1.44062 h -28.95636 v 32.12572 q 0,5.90652 -3.45748,9.79618 -5.04215,5.90652 -14.11803,5.90652 -11.09274,0 -15.84677,-8.06744 -2.01686,-3.31342 -2.01686,-7.63526 z m 243.89617,-68.28516 q 52.87058,8.78775 52.87058,52.87058 0,32.70196 -31.40541,48.98091 -21.03298,10.94868 -53.59089,10.94868 h -60.79396 q -29.9648,0 -29.9648,-29.9648 V 120.98374 q 0,-29.820736 29.9648,-29.820736 h 54.31119 q 32.26979,0 52.00621,9.508056 30.10886,14.2621 30.10886,44.65908 0,39.47285 -43.50658,48.40467 z m -83.1235,-15.27052 h 43.36252 q 15.27052,0 26.2192,-5.6184 15.7027,-8.06745 15.7027,-23.48203 0,-15.70271 -15.12645,-22.61766 -10.08431,-4.60997 -25.93108,-4.60997 h -38.03224 q -6.19465,0 -6.19465,5.90652 z m 0,31.54947 v 55.89587 q 0,7.34714 7.63527,7.34714 h 39.32879 q 20.45674,0 31.40541,-5.47434 13.97397,-7.20308 13.97397,-25.06671 0,-18.87206 -18.29581,-27.22762 -11.81305,-5.47434 -30.10886,-5.47434 z"
       id="text3"
       transform="scale(0.76225958,1.3118891)"
       aria-label="C4B" />
  </g>
</svg>
